<?xml version="1.0" encoding="utf-8"?>
<!-- Generator: Adobe Illustrator 25.0.1, SVG Export Plug-In . SVG Version: 6.00 Build 0)  -->
<svg version="1.1" id="Calque_1" xmlns="http://www.w3.org/2000/svg" xmlns:xlink="http://www.w3.org/1999/xlink" x="0px" y="0px"
	 viewBox="0 0 99.76 366.91" style="enable-background:new 0 0 99.76 366.91;" xml:space="preserve">
<style type="text/css">
	.st0{opacity:0.16;}
	.st1{fill:#FFB800;}
</style>
<g id="S5jWCU_1_" class="st0">
	<g>
		<path class="st1" d="M31,357.6c0.2-1.29,0.32-2.43,0.55-3.55c0.4-1.93,0.09-3.73-0.81-5.46c-0.83-1.59-2.14-2.34-3.55-2.06
			c-1.24,0.25-1.87,1.29-2.02,3.17c-0.23,3,0.85,5.65,2.21,8.21c0.13,0.25,0.64,0.49,0.92,0.43C29.27,358.15,30.21,357.83,31,357.6z
			 M54.34,191.49c-0.19-1.29-0.4-2.38-0.5-3.49c-0.19-2.05-1.05-3.76-2.5-5.18c-1.22-1.19-2.77-1.46-3.94-0.78
			c-1.06,0.63-1.35,1.76-0.96,3.54c0.65,2.99,2.54,5.2,4.58,7.31c0.19,0.19,0.76,0.23,1.02,0.09
			C52.88,192.53,53.65,191.95,54.34,191.49z M71.3,233.99c0.91-3.32,1.42-6.56,0.1-9.82c-0.4-0.99-0.98-1.89-2.2-1.95
			c-1.29-0.06-2.24,0.56-2.79,1.7c-0.27,0.57-0.47,1.2-0.58,1.82c-0.32,1.83,0,3.57,0.85,5.23c0.44,0.88,0.76,1.82,1.19,2.89
			C68.86,233.9,70.05,233.94,71.3,233.99z M63.87,204.79c1.02,0.04,2.21,0.08,3.42,0.13c0.81-3.15,1.35-6.19,0.28-9.3
			c-0.6-1.74-1.35-2.49-2.54-2.48c-1.45,0-2.52,0.9-3.01,2.63c-0.6,2.09-0.39,4.1,0.61,6.05C63.08,202.69,63.39,203.64,63.87,204.79
			z M29.89,293.18c-0.05-0.07-0.1-0.14-0.15-0.2c0.95-0.76,1.91-1.53,2.86-2.29c1.64-1.32,2.54-3.06,2.82-5.12
			c0.21-1.54-0.42-2.77-1.6-3.32c-1.04-0.49-2.18-0.12-3.31,1.02c-1.49,1.51-2.57,3.28-3.12,5.32c-1.08,4-1.51,2.82,2.27,4.6
			C29.72,293.21,29.81,293.19,29.89,293.18z M46.13,269.97c0.9-0.64,1.6-1.22,2.38-1.67c1.83-1.06,3.22-2.47,3.97-4.47
			c0.67-1.8,0.34-3.36-0.92-4.21c-1.09-0.74-2.35-0.42-3.87,0.9c-1.7,1.48-2.82,3.35-3.7,5.39c-0.96,2.23-0.96,2.23,1.1,3.45
			C45.47,269.58,45.84,269.8,46.13,269.97z M34.57,339.44c0.76,0.19,1.67,0.5,2.62,0.63c0.33,0.05,0.93-0.24,1.05-0.53
			c0.62-1.47,1.35-2.94,1.62-4.49c0.27-1.58,0.27-3.28-0.01-4.86c-0.36-2.03-2.47-2.64-4.08-1.32c-0.48,0.39-0.9,0.92-1.19,1.48
			c-0.95,1.85-1.15,3.79-0.62,5.82C34.22,337.19,34.35,338.26,34.57,339.44z M58.96,216.82c0.09-1.32,0.13-2.47,0.24-3.61
			c0.22-2.14-0.32-4.06-1.62-5.75c-0.99-1.3-2.32-1.75-3.58-1.25c-1.37,0.54-1.52,1.75-1.54,2.99c-0.04,3.15,1.28,5.83,3.02,8.33
			c0.14,0.21,0.62,0.37,0.86,0.29C57.29,217.52,58.2,217.11,58.96,216.82z M34,314.13c2.04-2.8,3.59-5.68,3.51-9.18
			c-0.03-1.12-0.28-2.2-1.49-2.64c-1.2-0.45-2.3-0.15-3.19,0.76c-1.43,1.47-2.17,3.25-2.15,5.3c0.01,1.46,0.11,2.92,0.18,4.46
			C31.8,313.22,32.83,313.65,34,314.13z M54,243.86c1.24,0.1,2.42,0.2,3.43,0.28c0.59-1.08,1.05-2.05,1.63-2.95
			c1.24-1.92,1.65-3.98,1.17-6.19c-0.33-1.52-1.37-2.49-2.64-2.58c-1.45-0.1-2.15,0.87-2.7,1.99
			C53.39,237.42,53.52,240.58,54,243.86z M23.78,329.55c0.23-1.19,0.35-2.18,0.62-3.13c0.61-2.19,0.42-4.27-0.65-6.27
			c-0.75-1.4-2.03-2.09-3.32-1.83c-1.16,0.23-1.81,1.14-2.05,2.78c-0.49,3.33,0.61,6.28,2.09,9.23
			C21.65,330.05,22.76,329.79,23.78,329.55z M60.27,263.24c0.69,0.51,1.47,1.14,2.29,1.69c0.2,0.13,0.67,0.16,0.82,0.02
			c2.44-2.13,4.58-4.47,5.28-7.79c0.24-1.12,0.2-2.2-0.87-2.89c-1.07-0.7-2.19-0.66-3.27,0.03c-1.99,1.29-3.15,3.12-3.53,5.46
			C60.81,260.85,60.54,261.93,60.27,263.24z M43.03,287c0.16,0.2,0.39,0.52,0.66,0.81c1.95,2.18,1.18,2.09,3.76,0.49
			c2.31-1.43,4.26-3.26,5.22-5.9c0.66-1.85-0.47-3.47-2.43-3.4c-0.72,0.02-1.51,0.25-2.14,0.61c-1.71,0.97-2.99,2.35-3.67,4.26
			C44.04,284.91,43.53,285.89,43.03,287z M56.76,193.41c-0.47-0.24-1.21-0.93-1.61-0.77c-0.85,0.34-1.55,1.09-2.25,1.74
			c-0.15,0.14-0.16,0.66-0.02,0.83c0.68,0.82,1.33,1.72,2.19,2.31c0.46,0.31,1.52,0.29,1.94-0.04c0.48-0.38,0.77-1.3,0.73-1.96
			C57.71,194.88,57.18,194.25,56.76,193.41z M53.84,245.52c0.08,1.25,0.06,2.41,0.27,3.53c0.16,0.87,0.77,1.53,1.76,1.53
			c1.01,0,1.74-0.6,1.89-1.53c0.19-1.15,0.11-2.34,0.15-3.59C56.47,245.48,55.32,245.5,53.84,245.52z M25.9,293.33
			c-0.35,1.12-0.75,2.12-0.96,3.16c-0.2,1.02,0.1,1.96,1.23,2.3c1.08,0.33,1.93-0.18,2.4-1.11c0.47-0.94,0.73-1.99,1.12-3.06
			C28.38,294.17,27.29,293.8,25.9,293.33z M28.19,360.15c0.49,1.12,0.84,2.19,1.4,3.13c0.47,0.8,1.26,1.24,2.26,0.88
			c0.96-0.36,1.35-1.13,1.24-2.09c-0.09-0.7-0.35-1.38-0.57-2.06c-0.33-1-0.88-1.43-1.95-0.83
			C29.91,359.54,29.17,359.75,28.19,360.15z M60.53,218.51c-0.39-0.14-0.89-0.5-1.14-0.37c-0.95,0.49-1.81,1.13-2.7,1.73
			c-0.03,0.02,0.01,0.16,0.04,0.22c0.5,0.9,0.92,1.85,1.53,2.67c0.55,0.73,1.41,0.92,2.26,0.46c0.83-0.44,1.16-1.25,0.95-2.13
			C61.28,220.26,60.89,219.46,60.53,218.51z M33.46,315.71c-1.17-0.63-2.04-1.13-2.94-1.55c-0.23-0.1-0.76-0.01-0.86,0.17
			c-0.52,0.89-1.05,1.8-1.35,2.77c-0.26,0.85,0.1,1.68,0.95,2.14c0.82,0.44,1.64,0.26,2.17-0.42
			C32.15,317.9,32.72,316.85,33.46,315.71z M33.69,340.52c-0.37,1.17-0.79,2.2-1,3.28c-0.2,0.99,0.21,1.84,1.22,2.22
			c1.06,0.41,1.86-0.14,2.32-0.99c0.52-0.95,0.82-2.03,1.25-3.14C36.18,341.42,35.1,341.03,33.69,340.52z M22.24,335.39
			c0.78,0.96,1.9,1.12,2.72,0.41c0.99-0.85,0.86-3.31-0.24-4.64c-0.3-0.37-2.67,0.08-3.39,0.65
			C20.84,332.19,21.38,334.34,22.24,335.39z M60.29,268.53c0.16-0.17,0.5-0.61,0.9-1c0.74-0.71,0.52-1.23-0.18-1.85
			c-2.09-1.85-2.42-1.84-3.92,0.37c-0.78,1.15-0.77,2.35,0.03,3.04C57.91,269.77,58.9,269.65,60.29,268.53z M45.95,271.35
			c-0.65-0.32-0.97-0.47-1.29-0.63c-2.41-1.15-3.03-0.84-3.66,1.82c-0.03,0.12-0.05,0.23-0.07,0.35c-0.14,0.96,0.11,1.79,1.05,2.19
			c0.91,0.39,1.81,0.14,2.35-0.66C44.94,273.49,45.39,272.43,45.95,271.35z M67.16,235.1c-0.08,1.34-0.26,2.52-0.18,3.69
			c0.06,0.9,0.71,1.53,1.66,1.65c0.92,0.12,1.63-0.34,1.88-1.18c0.34-1.15,0.5-2.35,0.75-3.62C69.81,235.45,68.66,235.3,67.16,235.1
			z M63.15,206.02c-0.08,1.35-0.26,2.57-0.19,3.76c0.05,0.92,0.78,1.63,1.69,1.54c0.64-0.06,1.52-0.56,1.75-1.09
			c0.47-1.09,0.58-2.34,0.86-3.63C65.81,206.4,64.63,206.23,63.15,206.02z M43.01,291.59c0.19-0.37,0.76-1.06,0.61-1.32
			c-0.54-0.94-1.33-1.74-2.03-2.58c-0.02-0.03-0.16,0.01-0.22,0.05c-0.93,0.77-2,1.45-2.73,2.39c-0.31,0.4-0.12,1.54,0.26,2.02
			c0.33,0.42,1.28,0.59,1.89,0.5C41.51,292.55,42.15,292.03,43.01,291.59z"/>
		<path class="st1" d="M31,357.6c-0.78,0.23-1.72,0.55-2.69,0.75c-0.28,0.06-0.79-0.18-0.92-0.43c-1.36-2.56-2.44-5.21-2.21-8.21
			c0.14-1.88,0.78-2.92,2.02-3.17c1.42-0.29,2.73,0.46,3.55,2.06c0.89,1.72,1.2,3.53,0.81,5.46C31.32,355.17,31.19,356.32,31,357.6z
			"/>
		<path class="st1" d="M54.34,191.49c-0.69,0.46-1.46,1.04-2.3,1.5c-0.26,0.14-0.83,0.1-1.02-0.09c-2.04-2.11-3.93-4.32-4.58-7.31
			c-0.38-1.77-0.1-2.91,0.96-3.54c1.17-0.69,2.72-0.41,3.94,0.78c1.45,1.42,2.31,3.13,2.5,5.18
			C53.95,189.1,54.15,190.2,54.34,191.49z"/>
		<path class="st1" d="M71.3,233.99c-1.25-0.05-2.44-0.09-3.42-0.13c-0.44-1.07-0.75-2.02-1.19-2.89c-0.84-1.66-1.17-3.4-0.85-5.23
			c0.11-0.62,0.3-1.25,0.58-1.82c0.55-1.15,1.5-1.77,2.79-1.7c1.22,0.06,1.79,0.96,2.2,1.95C72.72,227.43,72.21,230.67,71.3,233.99z
			"/>
		<path class="st1" d="M63.87,204.79c-0.47-1.15-0.79-2.1-1.24-2.97c-1-1.95-1.21-3.96-0.61-6.05c0.49-1.72,1.56-2.62,3.01-2.63
			c1.19,0,1.94,0.75,2.54,2.48c1.07,3.11,0.53,6.15-0.28,9.3C66.07,204.88,64.89,204.83,63.87,204.79z"/>
		<path class="st1" d="M29.89,293.18c-0.08,0-0.17,0.03-0.23,0c-3.78-1.77-3.35-0.6-2.27-4.6c0.55-2.04,1.63-3.81,3.12-5.32
			c1.13-1.14,2.27-1.51,3.31-1.02c1.17,0.56,1.8,1.78,1.6,3.32c-0.28,2.06-1.18,3.8-2.82,5.12c-0.95,0.77-1.91,1.53-2.86,2.29
			C29.79,293.05,29.84,293.12,29.89,293.18z"/>
		<path class="st1" d="M46.13,269.97c-0.28-0.17-0.66-0.39-1.03-0.61c-2.06-1.22-2.06-1.22-1.1-3.45c0.87-2.04,1.99-3.91,3.7-5.39
			c1.52-1.32,2.78-1.63,3.87-0.9c1.26,0.85,1.6,2.4,0.92,4.21c-0.75,2-2.14,3.42-3.97,4.47C47.73,268.75,47.03,269.33,46.13,269.97z
			"/>
		<path class="st1" d="M34.57,339.44c-0.22-1.18-0.35-2.24-0.62-3.28c-0.53-2.03-0.33-3.97,0.62-5.82c0.28-0.55,0.71-1.09,1.19-1.48
			c1.62-1.32,3.73-0.71,4.08,1.32c0.28,1.58,0.28,3.28,0.01,4.86c-0.27,1.55-1,3.02-1.62,4.49c-0.12,0.29-0.72,0.57-1.05,0.53
			C36.24,339.93,35.33,339.63,34.57,339.44z"/>
		<path class="st1" d="M58.96,216.82c-0.76,0.3-1.67,0.7-2.61,1c-0.24,0.08-0.72-0.08-0.86-0.29c-1.74-2.51-3.07-5.18-3.02-8.33
			c0.02-1.24,0.17-2.45,1.54-2.99c1.26-0.49,2.59-0.04,3.58,1.25c1.3,1.69,1.84,3.61,1.62,5.75
			C59.09,214.35,59.05,215.5,58.96,216.82z"/>
		<path class="st1" d="M34,314.13c-1.17-0.49-2.21-0.91-3.13-1.3c-0.06-1.54-0.17-3-0.18-4.46c-0.02-2.05,0.72-3.83,2.15-5.3
			c0.89-0.91,1.98-1.21,3.19-0.76c1.21,0.45,1.46,1.52,1.49,2.64C37.6,308.45,36.05,311.34,34,314.13z"/>
		<path class="st1" d="M54,243.86c-0.48-3.28-0.61-6.44,0.89-9.45c0.56-1.12,1.25-2.09,2.7-1.99c1.26,0.09,2.31,1.06,2.64,2.58
			c0.48,2.21,0.07,4.27-1.17,6.19c-0.58,0.9-1.04,1.87-1.63,2.95C56.42,244.06,55.24,243.97,54,243.86z"/>
		<path class="st1" d="M23.78,329.55c-1.02,0.24-2.13,0.5-3.32,0.78c-1.48-2.95-2.58-5.9-2.09-9.23c0.24-1.63,0.89-2.54,2.05-2.78
			c1.29-0.26,2.57,0.43,3.32,1.83c1.07,2,1.26,4.08,0.65,6.27C24.13,327.38,24.01,328.37,23.78,329.55z"/>
		<path class="st1" d="M60.27,263.24c0.27-1.31,0.54-2.39,0.72-3.48c0.39-2.34,1.55-4.17,3.53-5.46c1.08-0.7,2.2-0.73,3.27-0.03
			s1.11,1.77,0.87,2.89c-0.7,3.31-2.84,5.66-5.28,7.79c-0.16,0.14-0.62,0.11-0.82-0.02C61.73,264.38,60.95,263.76,60.27,263.24z"/>
		<path class="st1" d="M43.03,287c0.49-1.11,1.01-2.1,1.38-3.13c0.68-1.91,1.97-3.29,3.67-4.26c0.63-0.36,1.42-0.59,2.14-0.61
			c1.96-0.06,3.1,1.56,2.43,3.4c-0.95,2.65-2.91,4.48-5.22,5.9c-2.58,1.6-1.81,1.69-3.76-0.49C43.42,287.52,43.19,287.2,43.03,287z"
			/>
		<path class="st1" d="M56.76,193.41c0.42,0.84,0.95,1.46,0.99,2.11c0.03,0.66-0.25,1.57-0.73,1.96c-0.42,0.33-1.48,0.35-1.94,0.04
			c-0.86-0.58-1.51-1.48-2.19-2.31c-0.14-0.17-0.13-0.69,0.02-0.83c0.7-0.65,1.4-1.4,2.25-1.74
			C55.55,192.48,56.29,193.17,56.76,193.41z"/>
		<path class="st1" d="M53.84,245.52c1.48-0.02,2.63-0.04,4.07-0.06c-0.04,1.26,0.04,2.45-0.15,3.59c-0.15,0.93-0.89,1.53-1.89,1.53
			c-0.99,0-1.6-0.66-1.76-1.53C53.91,247.93,53.93,246.77,53.84,245.52z"/>
		<path class="st1" d="M25.9,293.33c1.39,0.47,2.48,0.84,3.79,1.28c-0.38,1.08-0.65,2.12-1.12,3.06c-0.46,0.93-1.31,1.44-2.4,1.11
			c-1.13-0.34-1.43-1.28-1.23-2.3C25.14,295.45,25.55,294.46,25.9,293.33z"/>
		<path class="st1" d="M28.19,360.15c0.98-0.39,1.72-0.6,2.37-0.97c1.07-0.6,1.62-0.18,1.95,0.83c0.22,0.68,0.49,1.36,0.57,2.06
			c0.12,0.96-0.27,1.74-1.24,2.09c-0.99,0.37-1.79-0.08-2.26-0.88C29.03,362.33,28.68,361.27,28.19,360.15z"/>
		<path class="st1" d="M60.53,218.51c0.36,0.96,0.75,1.75,0.94,2.59c0.2,0.88-0.12,1.68-0.95,2.13c-0.85,0.45-1.71,0.27-2.26-0.46
			c-0.61-0.81-1.03-1.77-1.53-2.67c-0.04-0.07-0.07-0.21-0.04-0.22c0.89-0.6,1.75-1.24,2.7-1.73
			C59.64,218,60.15,218.37,60.53,218.51z"/>
		<path class="st1" d="M33.46,315.71c-0.74,1.14-1.31,2.18-2.04,3.11c-0.54,0.68-1.36,0.86-2.17,0.42
			c-0.85-0.46-1.21-1.28-0.95-2.14c0.3-0.97,0.84-1.88,1.35-2.77c0.1-0.17,0.63-0.27,0.86-0.17
			C31.42,314.58,32.28,315.09,33.46,315.71z"/>
		<path class="st1" d="M33.69,340.52c1.41,0.51,2.49,0.9,3.79,1.37c-0.43,1.11-0.73,2.19-1.25,3.14c-0.46,0.84-1.26,1.39-2.32,0.99
			c-1.01-0.39-1.41-1.23-1.22-2.22C32.91,342.72,33.33,341.69,33.69,340.52z"/>
		<path class="st1" d="M22.24,335.39c-0.86-1.05-1.4-3.2-0.91-3.59c0.72-0.57,3.09-1.02,3.39-0.65c1.1,1.33,1.22,3.79,0.24,4.64
			C24.14,336.51,23.02,336.34,22.24,335.39z"/>
		<path class="st1" d="M60.29,268.53c-1.39,1.12-2.38,1.24-3.17,0.56c-0.8-0.68-0.81-1.89-0.03-3.04c1.5-2.21,1.84-2.22,3.92-0.37
			c0.7,0.62,0.91,1.14,0.18,1.85C60.79,267.92,60.45,268.36,60.29,268.53z"/>
		<path class="st1" d="M45.95,271.35c-0.56,1.08-1.01,2.14-1.63,3.08c-0.54,0.8-1.43,1.05-2.35,0.66c-0.94-0.4-1.19-1.23-1.05-2.19
			c0.02-0.12,0.04-0.23,0.07-0.35c0.63-2.66,1.26-2.97,3.66-1.82C44.98,270.87,45.3,271.03,45.95,271.35z"/>
		<path class="st1" d="M67.16,235.1c1.5,0.2,2.65,0.36,4.1,0.55c-0.25,1.26-0.41,2.47-0.75,3.62c-0.25,0.83-0.96,1.3-1.88,1.18
			c-0.94-0.12-1.6-0.75-1.66-1.65C66.91,237.62,67.08,236.44,67.16,235.1z"/>
		<path class="st1" d="M63.15,206.02c1.48,0.21,2.66,0.37,4.12,0.58c-0.28,1.28-0.38,2.54-0.86,3.63c-0.23,0.54-1.12,1.03-1.75,1.09
			c-0.91,0.09-1.64-0.61-1.69-1.54C62.9,208.59,63.07,207.37,63.15,206.02z"/>
		<path class="st1" d="M43.01,291.59c-0.86,0.44-1.51,0.96-2.21,1.07c-0.62,0.09-1.56-0.08-1.89-0.5c-0.38-0.48-0.57-1.62-0.26-2.02
			c0.72-0.94,1.79-1.61,2.73-2.39c0.05-0.05,0.2-0.08,0.22-0.05c0.7,0.84,1.49,1.64,2.03,2.58
			C43.78,290.54,43.2,291.22,43.01,291.59z"/>
	</g>
</g>
<g id="S5jWCU_2_" class="st0">
	<g>
		<path class="st1" d="M63.25,176.98c0.8,0.17,1.76,0.42,2.74,0.55c0.28,0.04,0.77-0.24,0.89-0.5c1.17-2.66,2.05-5.38,1.6-8.35
			c-0.28-1.86-0.99-2.85-2.24-3.01c-1.43-0.18-2.68,0.66-3.39,2.31c-0.77,1.78-0.94,3.61-0.4,5.5
			C62.75,174.58,62.96,175.71,63.25,176.98z"/>
		<path class="st1" d="M27.77,13.02c0.73,0.41,1.54,0.93,2.4,1.33c0.27,0.12,0.84,0.04,1.01-0.17c1.88-2.25,3.6-4.6,4.03-7.63
			c0.25-1.8-0.12-2.91-1.22-3.45c-1.22-0.6-2.74-0.21-3.87,1.06c-1.34,1.52-2.08,3.29-2.11,5.35
			C27.99,10.62,27.86,11.72,27.77,13.02z"/>
		<path class="st1" d="M13.98,56.65c1.24-0.14,2.42-0.27,3.4-0.38c0.36-1.1,0.6-2.07,0.98-2.97c0.72-1.72,0.91-3.48,0.46-5.28
			c-0.15-0.61-0.39-1.22-0.71-1.77c-0.63-1.1-1.63-1.65-2.91-1.5c-1.21,0.15-1.72,1.09-2.05,2.11
			C12.09,50.22,12.83,53.41,13.98,56.65z"/>
		<path class="st1" d="M19.25,26.99c0.39-1.18,0.63-2.15,1.02-3.06c0.85-2.02,0.92-4.04,0.17-6.08c-0.62-1.68-1.75-2.5-3.19-2.4
			c-1.19,0.08-1.88,0.89-2.35,2.66c-0.84,3.18-0.08,6.17,0.96,9.25C17.05,27.24,18.23,27.11,19.25,26.99z"/>
		<path class="st1" d="M59.62,112.65c0.08-0.01,0.17,0.01,0.23-0.02c3.64-2.04,3.29-0.84,1.92-4.75c-0.7-1.99-1.9-3.68-3.5-5.07
			c-1.21-1.06-2.38-1.34-3.37-0.77c-1.13,0.64-1.67,1.91-1.35,3.43c0.43,2.03,1.45,3.7,3.19,4.9c1.01,0.69,2.01,1.38,3.02,2.08
			C59.71,112.51,59.67,112.58,59.62,112.65z"/>
		<path class="st1" d="M41.72,90.69c0.27-0.19,0.63-0.44,0.99-0.69c1.96-1.37,1.96-1.37,0.85-3.52c-1.02-1.97-2.27-3.75-4.08-5.1
			c-1.61-1.2-2.89-1.43-3.93-0.61c-1.2,0.94-1.42,2.51-0.61,4.26c0.89,1.94,2.39,3.25,4.29,4.17
			C40.04,89.59,40.78,90.12,41.72,90.69z"/>
		<path class="st1" d="M58.35,159.12c0.13-1.19,0.19-2.26,0.38-3.31c0.38-2.06,0.03-3.99-1.05-5.76c-0.32-0.53-0.78-1.03-1.29-1.39
			c-1.71-1.2-3.77-0.43-3.98,1.62c-0.16,1.6-0.04,3.29,0.34,4.85c0.38,1.52,1.22,2.94,1.94,4.36c0.14,0.28,0.76,0.52,1.08,0.45
			C56.72,159.74,57.61,159.37,58.35,159.12z"/>
		<path class="st1" d="M25.02,38.62c0.78,0.24,1.72,0.57,2.68,0.8c0.25,0.06,0.71-0.14,0.84-0.36c1.55-2.63,2.68-5.39,2.4-8.53
			c-0.11-1.23-0.35-2.43-1.76-2.87c-1.29-0.4-2.58,0.15-3.48,1.51c-1.17,1.78-1.57,3.74-1.2,5.86
			C24.72,36.17,24.84,37.32,25.02,38.62z"/>
		<path class="st1" d="M57.06,133.84c1.13-0.57,2.13-1.07,3.03-1.53c-0.05-1.54-0.06-3-0.15-4.46c-0.13-2.05-1-3.77-2.53-5.13
			c-0.95-0.85-2.07-1.06-3.24-0.53c-1.17,0.53-1.35,1.62-1.29,2.74C53.06,128.45,54.82,131.21,57.06,133.84z"/>
		<path class="st1" d="M31.96,65.23c0.24-3.31,0.14-6.47-1.58-9.36c-0.64-1.07-1.4-1.99-2.84-1.79c-1.25,0.18-2.22,1.23-2.44,2.77
			c-0.32,2.24,0.25,4.27,1.62,6.09c0.64,0.85,1.17,1.79,1.84,2.82C29.56,65.61,30.73,65.43,31.96,65.23z"/>
		<path class="st1" d="M68.39,148.47c1.03,0.16,2.17,0.34,3.36,0.53c1.26-3.05,2.14-6.07,1.4-9.36c-0.36-1.61-1.08-2.47-2.25-2.62
			c-1.31-0.17-2.53,0.62-3.18,2.07c-0.92,2.07-0.96,4.16-0.19,6.3C67.87,146.33,68.07,147.31,68.39,148.47z"/>
		<path class="st1" d="M27.13,85.02c-0.37-1.29-0.71-2.34-0.97-3.42c-0.56-2.31-1.85-4.04-3.93-5.18c-1.12-0.62-2.25-0.57-3.26,0.21
			c-1.01,0.77-0.97,1.85-0.66,2.95c0.94,3.25,3.25,5.44,5.84,7.38c0.17,0.13,0.63,0.07,0.82-0.08
			C25.75,86.26,26.48,85.58,27.13,85.02z"/>
		<path class="st1" d="M46.07,107.45c-0.58-1.07-1.16-2.02-1.61-3.02c-0.82-1.85-2.2-3.13-3.98-3.98c-0.66-0.31-1.46-0.48-2.18-0.45
			c-1.96,0.08-2.98,1.78-2.18,3.57c1.14,2.57,3.23,4.25,5.64,5.51c2.69,1.4,1.93,1.55,3.71-0.77
			C45.71,108,45.92,107.66,46.07,107.45z"/>
		<path class="st1" d="M25.5,15.12c-0.35,0.87-0.84,1.53-0.83,2.18c0.02,0.66,0.37,1.55,0.88,1.9c0.44,0.3,1.51,0.24,1.94-0.1
			c0.81-0.64,1.4-1.59,2.01-2.46c0.13-0.18,0.07-0.7-0.09-0.83c-0.74-0.6-1.5-1.3-2.37-1.57C26.64,14.1,25.95,14.84,25.5,15.12z"/>
		<path class="st1" d="M32.23,66.87c-1.47,0.09-2.63,0.15-4.06,0.24c0.13,1.25,0.14,2.44,0.41,3.57c0.22,0.92,1,1.46,2,1.39
			c0.98-0.07,1.55-0.78,1.64-1.65C32.35,69.29,32.24,68.13,32.23,66.87z"/>
		<path class="st1" d="M63.62,112.51c-1.35,0.57-2.41,1.02-3.68,1.55c0.46,1.05,0.8,2.07,1.34,2.97c0.53,0.9,1.42,1.34,2.47,0.93
			c1.1-0.42,1.33-1.38,1.06-2.38C64.52,114.57,64.05,113.6,63.62,112.51z"/>
		<path class="st1" d="M66.24,179.31c-1.01-0.32-1.76-0.47-2.44-0.79c-1.11-0.52-1.63-0.06-1.88,0.97c-0.17,0.69-0.38,1.39-0.42,2.1
			c-0.05,0.96,0.4,1.71,1.39,1.99c1.02,0.29,1.78-0.21,2.19-1.04C65.56,181.55,65.83,180.46,66.24,179.31z"/>
		<path class="st1" d="M23.58,40.42c-0.29,0.98-0.62,1.8-0.75,2.65c-0.14,0.9,0.24,1.67,1.11,2.05c0.88,0.39,1.73,0.14,2.22-0.63
			c0.55-0.86,0.9-1.84,1.33-2.77c0.03-0.07,0.05-0.21,0.03-0.23c-0.93-0.53-1.84-1.11-2.82-1.53
			C24.43,39.86,23.95,40.26,23.58,40.42z"/>
		<path class="st1" d="M57.72,135.38c0.82,1.08,1.47,2.08,2.26,2.95c0.59,0.64,1.42,0.76,2.2,0.26c0.81-0.52,1.11-1.37,0.79-2.2
			c-0.37-0.95-0.97-1.81-1.55-2.66c-0.11-0.17-0.65-0.22-0.87-0.1C59.67,134.1,58.84,134.67,57.72,135.38z"/>
		<path class="st1" d="M59.31,160.14c-1.36,0.61-2.42,1.08-3.68,1.64c0.51,1.08,0.89,2.13,1.48,3.04c0.52,0.81,1.36,1.3,2.39,0.81
			c0.97-0.46,1.32-1.33,1.05-2.3C60.25,162.28,59.76,161.28,59.31,160.14z"/>
		<path class="st1" d="M70.35,154.18c0.78-1.11,1.16-3.29,0.64-3.64c-0.76-0.51-3.15-0.79-3.43-0.4c-1,1.41-0.94,3.87,0.1,4.65
			C68.54,155.44,69.64,155.19,70.35,154.18z"/>
		<path class="st1" d="M27.49,90.3c1.47,1.01,2.47,1.06,3.2,0.33c0.74-0.74,0.67-1.94-0.2-3.03c-1.66-2.1-2-2.08-3.94-0.08
			c-0.65,0.67-0.83,1.2-0.04,1.86C26.95,89.72,27.33,90.14,27.49,90.3z"/>
		<path class="st1" d="M42,92.05c0.64,1.04,1.16,2.06,1.85,2.95c0.59,0.76,1.51,0.94,2.39,0.49c0.91-0.47,1.09-1.31,0.88-2.26
			c-0.03-0.12-0.06-0.23-0.1-0.34c-0.82-2.61-1.47-2.87-3.79-1.55C42.94,91.51,42.63,91.69,42,92.05z"/>
		<path class="st1" d="M18.19,57.46c-1.48,0.31-2.61,0.55-4.05,0.85c0.34,1.24,0.59,2.43,1.01,3.55c0.31,0.81,1.05,1.22,1.96,1.03
			c0.93-0.19,1.54-0.86,1.53-1.77C18.63,59.96,18.36,58.79,18.19,57.46z"/>
		<path class="st1" d="M20.05,28.17c-1.46,0.32-2.62,0.57-4.06,0.88c0.37,1.26,0.57,2.5,1.12,3.55c0.27,0.52,1.19,0.94,1.83,0.96
			c0.92,0.03,1.59-0.73,1.58-1.66C20.5,30.71,20.23,29.51,20.05,28.17z"/>
		<path class="st1" d="M46.42,112.03c0.89,0.37,1.57,0.85,2.28,0.9c0.62,0.05,1.55-0.19,1.85-0.64c0.34-0.5,0.45-1.65,0.11-2.03
			c-0.79-0.88-1.91-1.48-2.89-2.18c-0.06-0.04-0.2-0.07-0.22-0.04c-0.64,0.89-1.36,1.75-1.84,2.72
			C45.58,111.03,46.21,111.67,46.42,112.03z"/>
	</g>
</g>
</svg>
